<svg width="368" height="368" viewBox="0 0 368 368" fill="none" xmlns="http://www.w3.org/2000/svg">
<g filter="url(#filter0_d_2357_23896)">
<path d="M332.529 59.4994H346.019C351.058 59.4994 355.891 61.5012 359.454 65.0644C363.017 68.6275 365.019 73.4603 365.019 78.4994V211.499C365.019 216.538 363.017 221.371 359.454 224.934C355.891 228.498 351.058 230.499 346.019 230.499H308.019L228.789 119.615C224.181 113.168 217.672 108.322 210.174 105.757C202.675 103.191 194.562 103.034 186.97 105.308L139.736 119.482C133.165 121.449 126.185 121.601 119.535 119.922C112.885 118.243 106.813 114.795 101.964 109.944L96.397 104.377C94.4094 102.39 92.8875 99.9868 91.9408 97.3404C90.9942 94.694 90.6465 91.8706 90.9227 89.0736C91.199 86.2766 92.0923 83.5757 93.5383 81.1657C94.9844 78.7556 96.9471 76.6964 99.285 75.1364L201.904 6.73637C208.03 2.64965 215.211 0.430908 222.575 0.349953C229.938 0.268999 237.167 2.32932 243.381 6.28037L322.345 56.5354C325.384 58.4666 328.928 59.4945 332.529 59.4994ZM61.513 217.104L30.809 243.97C28.7105 245.81 27.0431 248.089 25.9251 250.646C24.8071 253.203 24.2661 255.975 24.3404 258.764C24.4148 261.554 25.1027 264.293 26.3553 266.786C27.608 269.28 29.3945 271.467 31.588 273.192L129.248 349.952C131.395 351.642 133.881 352.849 136.537 353.491C139.192 354.133 141.955 354.195 144.637 353.672C147.319 353.149 149.856 352.054 152.076 350.461C154.296 348.868 156.146 346.815 157.501 344.442L170.877 321.034C174.86 314.064 176.533 306.01 175.656 298.03C174.779 290.049 171.396 282.552 165.994 276.612L114.656 220.144C107.961 212.778 98.6433 208.333 88.7057 207.765C78.7681 207.196 69.0042 210.55 61.513 217.104ZM99.874 40.4994H23C17.9609 40.4994 13.1282 42.5012 9.56497 46.0643C6.00178 49.6275 4 54.4603 4 59.4994V202.303C4.00102 209.967 6.31911 217.451 10.65 223.773L12.056 222.519L42.741 195.653C55.8508 184.182 72.9387 178.312 90.3307 179.307C107.723 180.302 124.03 188.082 135.746 200.973L187.084 257.441C196.532 267.832 202.449 280.947 203.984 294.907C205.52 308.867 202.597 322.955 195.634 335.151L183.189 356.925C188.558 358.961 194.319 359.754 200.038 359.244C205.758 358.734 211.287 356.934 216.211 353.98L300.001 303.706C302.248 302.357 304.191 300.556 305.708 298.419C307.225 296.282 308.284 293.854 308.818 291.288C309.351 288.722 309.348 286.073 308.808 283.508C308.269 280.943 307.204 278.518 305.682 276.384L205.609 136.183C204.457 134.573 202.83 133.363 200.956 132.723C199.083 132.083 197.056 132.043 195.159 132.611L147.925 146.766C136.426 150.216 124.208 150.488 112.567 147.554C100.926 144.621 90.2957 138.59 81.805 130.103L76.238 124.536C71.2673 119.568 67.4609 113.559 65.0933 106.942C62.7257 100.325 61.8559 93.2655 62.5466 86.2718C63.2372 79.2781 65.4711 72.5247 69.0872 66.4987C72.7034 60.4727 77.6116 55.3242 83.458 51.4244L99.874 40.4994Z" fill="#B400F7"/>
<path d="M23 40.999H98.2207L83.1807 51.0078V51.0088C77.2728 54.9496 72.3124 60.1518 68.6582 66.2412C65.004 72.3307 62.7467 79.1553 62.0488 86.2227C61.3509 93.2899 62.2306 100.424 64.623 107.11C67.0156 113.797 70.8618 119.869 75.8848 124.89L81.4512 130.457C90.0057 139.008 100.716 145.083 112.444 148.039C124.173 150.995 136.483 150.72 148.068 147.245L195.303 133.09V133.091C197.1 132.553 199.02 132.59 200.795 133.196C202.57 133.803 204.111 134.949 205.202 136.474L305.275 276.675C306.758 278.752 307.794 281.114 308.319 283.611C308.845 286.109 308.848 288.688 308.328 291.187C307.809 293.685 306.778 296.049 305.301 298.13C303.823 300.211 301.931 301.963 299.743 303.277L215.954 353.552C211.095 356.467 205.638 358.243 199.994 358.746C194.545 359.232 189.057 358.518 183.916 356.66L196.068 335.399C203.084 323.111 206.029 308.917 204.481 294.853C202.934 280.788 196.973 267.573 187.454 257.104H187.453L136.116 200.637C124.312 187.648 107.882 179.81 90.3594 178.808C72.8367 177.805 55.6205 183.719 42.4121 195.277L11.7266 222.144L11.7236 222.146L10.7451 223.018C6.6762 216.88 4.50106 209.676 4.5 202.304V59.499C4.50009 54.5926 6.4496 49.8873 9.91895 46.418C13.3884 42.9487 18.0936 40.999 23 40.999ZM61.8418 217.48C69.2343 211.012 78.8701 207.703 88.6768 208.264C98.4836 208.825 107.679 213.211 114.286 220.48L165.624 276.948V276.949C170.955 282.81 174.293 290.209 175.159 298.084C176.025 305.959 174.374 313.907 170.443 320.786L157.066 344.194C155.748 346.505 153.947 348.504 151.785 350.055C149.624 351.606 147.152 352.671 144.541 353.181C141.93 353.69 139.24 353.63 136.654 353.005C134.069 352.38 131.648 351.205 129.558 349.56H129.557L31.8975 272.799H31.8965C29.7611 271.119 28.0213 268.99 26.8018 266.562C25.5821 264.134 24.9123 261.467 24.8398 258.751C24.7674 256.035 25.2944 253.336 26.3828 250.847C27.4714 248.357 29.0955 246.138 31.1387 244.347L61.8418 217.48ZM222.58 0.849609C229.847 0.769721 236.98 2.80324 243.112 6.70215L322.076 56.957H322.077C325.197 58.9393 328.833 59.9941 332.528 59.999H346.019C350.925 59.999 355.631 61.9485 359.101 65.418C362.57 68.8873 364.518 73.5927 364.519 78.499V211.499C364.519 216.406 362.57 221.112 359.101 224.581C355.631 228.05 350.925 229.999 346.019 229.999H308.275L229.196 119.324H229.195C224.527 112.792 217.932 107.882 210.335 105.283C202.738 102.684 194.518 102.525 186.826 104.829L139.593 119.003C133.109 120.944 126.22 121.095 119.657 119.438C113.095 117.78 107.103 114.378 102.317 109.591L96.751 104.023L96.3926 103.656C94.6319 101.795 93.2752 99.5875 92.4111 97.1719C91.4895 94.5953 91.151 91.8462 91.4199 89.123C91.6889 86.3997 92.5588 83.7695 93.9668 81.4229C95.2867 79.223 97.049 77.3232 99.1396 75.8428L99.5625 75.5527L202.182 7.15234C208.227 3.11948 215.314 0.929539 222.58 0.849609Z" stroke="black"/>
</g>
<defs>
<filter id="filter0_d_2357_23896" x="0" y="0.347656" width="369.019" height="367.047" filterUnits="userSpaceOnUse" color-interpolation-filters="sRGB">
<feFlood flood-opacity="0" result="BackgroundImageFix"/>
<feColorMatrix in="SourceAlpha" type="matrix" values="0 0 0 0 0 0 0 0 0 0 0 0 0 0 0 0 0 0 127 0" result="hardAlpha"/>
<feOffset dy="4"/>
<feGaussianBlur stdDeviation="2"/>
<feComposite in2="hardAlpha" operator="out"/>
<feColorMatrix type="matrix" values="0 0 0 0 0 0 0 0 0 0 0 0 0 0 0 0 0 0 0.25 0"/>
<feBlend mode="normal" in2="BackgroundImageFix" result="effect1_dropShadow_2357_23896"/>
<feBlend mode="normal" in="SourceGraphic" in2="effect1_dropShadow_2357_23896" result="shape"/>
</filter>
</defs>
</svg>
