<svg width="11" height="14" viewBox="0 0 11 14" fill="none" xmlns="http://www.w3.org/2000/svg">
<path d="M4.77812 9.485L8.6625 5.53L7.68281 4.5325L4.77812 7.49L3.33438 6.02L2.35469 7.0175L4.77812 9.485ZM5.5 14C3.90729 13.5917 2.59256 12.6611 1.55581 11.2084C0.519063 9.75567 0.000458333 8.14287 0 6.37V2.1L5.5 0L11 2.1V6.37C11 8.14333 10.4816 9.75637 9.44488 11.2091C8.40813 12.6618 7.09317 13.5921 5.5 14ZM5.5 12.53C6.69167 12.145 7.67708 11.375 8.45625 10.22C9.23542 9.065 9.625 7.78167 9.625 6.37V3.0625L5.5 1.4875L1.375 3.0625V6.37C1.375 7.78167 1.76458 9.065 2.54375 10.22C3.32292 11.375 4.30833 12.145 5.5 12.53Z" fill="white"/>
</svg>
