<svg width="30" height="26" viewBox="0 0 30 26" fill="none" xmlns="http://www.w3.org/2000/svg">
<path fill-rule="evenodd" clip-rule="evenodd" d="M27.6145 7.23414C27.5326 7.22932 27.4454 7.2274 27.3528 7.22836H23.7022C20.7124 7.22836 18.1548 9.58209 18.1548 12.65C18.1548 15.718 20.7138 18.0717 23.7022 18.0717H27.3528C27.4454 18.0727 27.5331 18.0708 27.616 18.0659C28.2305 18.0289 28.8105 17.7697 29.2481 17.3367C29.6857 16.9036 29.9509 16.3263 29.9943 15.7122C30.0001 15.6255 30.0001 15.5315 30.0001 15.4447V9.85535C30.0001 9.7686 30.0001 9.67462 29.9943 9.58788C29.9509 8.9738 29.6857 8.39646 29.2481 7.96342C28.8105 7.53038 28.229 7.27119 27.6145 7.23414ZM23.3827 14.0958C24.1519 14.0958 24.775 13.4481 24.775 12.65C24.775 11.852 24.1519 11.2043 23.3827 11.2043C22.6121 11.2043 21.989 11.852 21.989 12.65C21.989 13.4481 22.6121 14.0958 23.3827 14.0958Z" fill="white"/>
<path fill-rule="evenodd" clip-rule="evenodd" d="M27.3513 20.2409C27.4013 20.2389 27.451 20.2487 27.4965 20.2696C27.542 20.2904 27.5819 20.3217 27.613 20.3608C27.6442 20.4 27.6656 20.4459 27.6757 20.4949C27.6857 20.5439 27.684 20.5946 27.6708 20.6429C27.3816 21.6723 26.9204 22.5513 26.1816 23.2886C25.0988 24.373 23.7267 24.8515 22.0323 25.08C20.3841 25.3012 18.2805 25.3012 15.6231 25.3012H12.5696C9.91228 25.3012 7.80722 25.3012 6.16047 25.08C4.46602 24.8515 3.09397 24.3715 2.01108 23.2901C0.929637 22.2072 0.449638 20.8352 0.221205 19.1407C1.72351e-07 17.4925 0 15.3889 0 12.7315V12.5696C0 9.91228 1.72351e-07 7.80722 0.221205 6.15903C0.449638 4.46457 0.929637 3.09253 2.01108 2.00964C3.09397 0.928191 4.46602 0.448192 6.16047 0.219759C7.80866 -6.46315e-08 9.91228 0 12.5696 0H15.6231C18.2805 0 20.3855 1.72351e-07 22.0323 0.221205C23.7267 0.449638 25.0988 0.929637 26.1816 2.01108C26.9204 2.75132 27.3816 3.62891 27.6708 4.65831C27.684 4.70655 27.6857 4.75723 27.6757 4.80624C27.6656 4.85525 27.6442 4.90119 27.613 4.94035C27.5819 4.97951 27.542 5.01077 27.4965 5.0316C27.451 5.05243 27.4013 5.06224 27.3513 5.06023H23.7021C19.6005 5.06023 15.986 8.29878 15.986 12.6506C15.986 17.0024 19.6005 20.2409 23.7021 20.2409H27.3513ZM5.42168 5.78312C5.1341 5.78312 4.85829 5.89737 4.65494 6.10072C4.45159 6.30407 4.33734 6.57988 4.33734 6.86746C4.33734 7.15504 4.45159 7.43085 4.65494 7.6342C4.85829 7.83755 5.1341 7.9518 5.42168 7.9518H11.2048C11.4924 7.9518 11.7682 7.83755 11.9715 7.6342C12.1749 7.43085 12.2891 7.15504 12.2891 6.86746C12.2891 6.57988 12.1749 6.30407 11.9715 6.10072C11.7682 5.89737 11.4924 5.78312 11.2048 5.78312H5.42168Z" fill="white"/>
</svg>
